<?xml version="1.0" standalone="no"?><!DOCTYPE svg PUBLIC "-//W3C//DTD SVG 1.1//EN" "http://www.w3.org/Graphics/SVG/1.1/DTD/svg11.dtd"><svg t="1539072546804" class="icon" style="" viewBox="0 0 1024 1024" version="1.1" xmlns="http://www.w3.org/2000/svg" p-id="2035" xmlns:xlink="http://www.w3.org/1999/xlink" width="200" height="200"><defs><style type="text/css"></style></defs><path d="M511.8 514m-447.8 0a447.8 447.8 0 1 0 895.6 0 447.8 447.8 0 1 0-895.6 0Z" fill="#E6F3FF" p-id="2036"></path><path d="M959.6 514v-1.2L897 450.2l-36.4 28.1-219.9-220L404 471.5l-66.8 23.2 83.4 83.4-13.4 0.3 74.4 74.4s138.9 170.2 219.8 267C853.9 848.3 959.6 693.5 959.6 514z" fill="#CFDBE6" p-id="2037"></path><path d="M804.3 775.6c-8.9 0-16.1-7.2-16.1-16.1V526.1c0-8.9 7.2-16.1 16.1-16.1 8.9 0 16.1 7.2 16.1 16.1v233.4c0 8.9-7.2 16.1-16.1 16.1z" fill="#FFD15D" p-id="2038"></path><path d="M805.3 510.1v265.4c8.4-0.5 15.1-7.5 15.1-16V526.1c0-8.5-6.7-15.4-15.1-16z" fill="#F9B54C" p-id="2039"></path><path d="M555.7 625.1v-48.7h-87.8v48.7c0 3.9-3.1 7-7 7h-60.5V800h222.8V632.1h-60.5c-3.9 0-7-3.1-7-7z" fill="#FED8B2" p-id="2040"></path><path d="M623.2 632.1h-60.5c-3.9 0-7-3.1-7-7v-48.7h-44.9V800h112.4V632.1z" fill="#EABE96" p-id="2041"></path><path d="M365.9 474.5m-35.1 0a35.1 35.1 0 1 0 70.2 0 35.1 35.1 0 1 0-70.2 0Z" fill="#FED8B2" p-id="2042"></path><path d="M650.2 474.5m-35.1 0a35.1 35.1 0 1 0 70.2 0 35.1 35.1 0 1 0-70.2 0Z" fill="#EABE96" p-id="2043"></path><path d="M512 620.5h-7.9c-73.1 0-132.4-59.3-132.4-132.4V367.3c0-73.1 59.3-132.4 132.4-132.4h7.9c73.1 0 132.4 59.3 132.4 132.4v120.9c0 73.1-59.3 132.3-132.4 132.3z" fill="#F4E3C3" p-id="2044"></path><path d="M512 235h-1.2v385.6h1.2c73.1 0 132.4-59.3 132.4-132.4V367.3c0-73.1-59.3-132.3-132.4-132.3z" fill="#FED8B2" p-id="2045"></path><path d="M503.8 218.4c-79.4 0-143.7 64.3-143.7 143.7v112.3h21.1V415c44.5-4.5 88.4-12 129.7-25.4V218.4h-7.1z" fill="#FD8469" p-id="2046"></path><path d="M630 279.7c-26-37-69-61.3-117.7-61.3h-1.6v171.3c18.1-5.9 35.7-12.9 52.5-21.3 19.9 22.8 42.8 43.2 68.1 59.7v46.3H656V362c0.1-30.5-9.6-59-26-82.3z" fill="#FC6F58" p-id="2047"></path><path d="M443.8 458.9m-13.6 0a13.6 13.6 0 1 0 27.2 0 13.6 13.6 0 1 0-27.2 0Z" fill="#59595B" p-id="2048"></path><path d="M572.3 458.9m-13.6 0a13.6 13.6 0 1 0 27.2 0 13.6 13.6 0 1 0-27.2 0Z" fill="#272525" p-id="2049"></path><path d="M545.1 518.6c-4.2 0-7.5 3.4-7.5 7.5 0 15.3-11.8 27.9-26.7 29.3-0.9 0.1-1.8 0.1-2.7 0.1-16.2 0-29.5-13.2-29.5-29.5 0-4.2-3.4-7.5-7.5-7.5s-7.5 3.4-7.5 7.5c0 24.6 20 44.5 44.5 44.5 0.9 0 1.8-0.1 2.7-0.1 23.3-1.4 41.8-20.8 41.8-44.4-0.1-4.1-3.5-7.4-7.6-7.4z" fill="#FD8469" p-id="2050"></path><path d="M552.6 526.1c0-4.2-3.4-7.5-7.5-7.5-4.2 0-7.5 3.4-7.5 7.5 0 15.3-11.8 27.9-26.7 29.3v15.1c23.2-1.4 41.7-20.8 41.7-44.4z" fill="#FC6F58" p-id="2051"></path><path d="M658.1 413H359.6V302.7c0-27.4 17.4-51.7 43.3-60.5l87.9-30c13.7-4.7 28.5-4.6 42.1 0.3l82.7 29.4c25.5 9.1 42.5 33.2 42.5 60.3V413z" fill="#4CCBFC" p-id="2052"></path><path d="M658.1 302.1c0-27.1-17-51.2-42.5-60.3l-82.7-29.4c-7.1-2.5-14.6-3.7-22-3.7V413h147.2V302.1z" fill="#31BAFD" p-id="2053"></path><path d="M353.5 426.2c0-30 70.9-54.3 158.3-54.3s158.3 24.3 158.3 54.3H353.5z" fill="#31BAFD" p-id="2054"></path><path d="M511.8 371.9h-1v54.3h159.3c0-30-70.9-54.3-158.3-54.3z" fill="#2B9ED8" p-id="2055"></path><path d="M629 632.1h-46.7c0 41-33.2 74.3-74.3 74.3s-74.3-33.2-74.3-74.3H387c-56.2 0-101.8 45.6-101.8 101.8v166.3c66.5 39.1 143.9 61.5 226.5 61.5 79.6 0 154.3-20.8 219-57.2V734c0.2-56.3-45.4-101.9-101.7-101.9z" fill="#FFD300" p-id="2056"></path><path d="M629 632.1h-46.7c0 40.1-31.8 72.7-71.5 74.2v255.4h1c79.6 0 154.3-20.8 219-57.2V734c0.1-56.3-45.5-101.9-101.8-101.9z" fill="#F4A200" p-id="2057"></path><path d="M412.3 632.1h-25.2c-8.5 0-16.7 1.1-24.6 3v301.1c46.7 16.5 96.9 25.5 149.3 25.5 52.3 0 102.6-9 149.3-25.6V637.3c-10.1-3.3-20.8-5.2-32-5.2h-17.7v180.3h-199l-0.1-180.3z" fill="#C1321F" p-id="2058"></path><path d="M629 632.1h-17.7v180.3H510.8v149.2h1c52.3 0 102.6-9 149.3-25.6V637.3c-10.1-3.3-20.9-5.2-32.1-5.2z" fill="#A82116" p-id="2059"></path><path d="M804.3 560.7c-44 0-79.7-35.7-79.7-79.7v-26.6H884V481c0 44.1-35.7 79.7-79.7 79.7z" fill="#FC6F58" p-id="2060"></path><path d="M805.3 454.5v106.2c43.5-0.5 78.7-36 78.7-79.7v-26.6h-78.7v0.1z" fill="#F1543F" p-id="2061"></path><path d="M880 478.6H728.6c-10.7 0-19.3-8.6-19.3-19.3 0-10.7 8.6-19.3 19.3-19.3H880c10.7 0 19.3 8.6 19.3 19.3 0 10.7-8.7 19.3-19.3 19.3z" fill="#C1321F" p-id="2062"></path><path d="M880 440h-74.7v38.6H880c10.7 0 19.3-8.6 19.3-19.3 0-10.6-8.7-19.3-19.3-19.3z" fill="#A82116" p-id="2063"></path></svg>