<?xml version="1.0" standalone="no"?><!DOCTYPE svg PUBLIC "-//W3C//DTD SVG 1.1//EN" "http://www.w3.org/Graphics/SVG/1.1/DTD/svg11.dtd"><svg t="1539072541523" class="icon" style="" viewBox="0 0 1024 1024" version="1.1" xmlns="http://www.w3.org/2000/svg" p-id="1884" xmlns:xlink="http://www.w3.org/1999/xlink" width="200" height="200"><defs><style type="text/css"></style></defs><path d="M510.9 511.8m-447.6 0a447.6 447.6 0 1 0 895.2 0 447.6 447.6 0 1 0-895.2 0Z" fill="#CFDBE6" p-id="1885"></path><path d="M726.4 904.1c126.8-69.8 216.1-199.3 230.1-350.7L680.7 267.7l-288.2 80.4-51.9 48.7 71.1 77.1-72.7 21.8 72.2 72.2-6.6 6.3 92.3 92.3 229.5 237.6z" fill="#B8C9D9" p-id="1886"></path><path d="M554.7 622.9v-48.6H467v48.6c0 3.9-3.1 7-7 7h-60.4v167.9h222.7V629.9h-60.4c-4 0-7.2-3.2-7.2-7z" fill="#FED8B2" p-id="1887"></path><path d="M622.2 629.9h-60.4c-3.9 0-7-3.1-7-7v-48.6h-44.9v223.5h112.3V629.9z" fill="#EABE96" p-id="1888"></path><path d="M510.9 680.6c-41 0-74.2-9.7-74.2-50.7H390c-56.2 0-101.8 45.6-101.8 101.8v168.4c65.6 37.7 141.6 59.2 222.7 59.2V680.6z" fill="#465F70" p-id="1889"></path><path d="M733.6 731.7c0-56.2-45.6-101.8-101.8-101.8h-46.7c0 41-33.2 50.7-74.2 50.7v278.8c81.1 0 157.1-21.6 222.7-59.2V731.7z" fill="#324A5E" p-id="1890"></path><path d="M500.3 680.3v278.8c3.5 0.1 7 0.2 10.5 0.2s7-0.1 10.5-0.2V680.3c-3.4 0.2-7 0.2-10.5 0.2s-7 0-10.5-0.2z" fill="#2B3B4E" p-id="1891"></path><path d="M510.9 680.6h-1v278.8h1c3.5 0 7-0.1 10.5-0.2V680.3c-3.4 0.2-6.9 0.3-10.5 0.3z" fill="#23313F" p-id="1892"></path><path d="M461.2 629.9l49.7 50.7-49.7 49.7-49.8-100.4z" fill="#324A5E" p-id="1893"></path><path d="M560.6 629.9l-49.7 50.7 49.7 49.7 49.7-100.4z" fill="#2B3B4E" p-id="1894"></path><path d="M365.1 472.3m-35.1 0a35.1 35.1 0 1 0 70.2 0 35.1 35.1 0 1 0-70.2 0Z" fill="#FED8B2" p-id="1895"></path><path d="M649.2 472.3m-35.1 0a35.1 35.1 0 1 0 70.2 0 35.1 35.1 0 1 0-70.2 0Z" fill="#EABE96" p-id="1896"></path><path d="M511.1 618.3h-7.9c-73.1 0-132.3-59.2-132.3-132.3V365.2c0-73.1 59.2-132.3 132.3-132.3h7.9c73.1 0 132.3 59.2 132.3 132.3V486c0 73.1-59.2 132.3-132.3 132.3z" fill="#F4E3C3" p-id="1897"></path><path d="M511.1 232.9h-1.2v385.4h1.2c73.1 0 132.3-59.2 132.3-132.3V365.2c0-73.1-59.2-132.3-132.3-132.3z" fill="#FED8B2" p-id="1898"></path><path d="M648 377.4c0 25.2-61.4 45.7-137.1 45.7s-137.1-20.5-137.1-45.7l135.1-16.1L648 377.4z" fill="#2B3B4E" p-id="1899"></path><path d="M509.9 361.4v61.7h1c75.7 0 137.1-20.5 137.1-45.7l-138.1-16z" fill="#23313F" p-id="1900"></path><path d="M442.9 456.7m-13.6 0a13.6 13.6 0 1 0 27.2 0 13.6 13.6 0 1 0-27.2 0Z" fill="#59595B" p-id="1901"></path><path d="M571.4 456.7m-13.6 0a13.6 13.6 0 1 0 27.2 0 13.6 13.6 0 1 0-27.2 0Z" fill="#272525" p-id="1902"></path><path d="M507.2 568.4c-24.6 0-44.5-20-44.5-44.5 0-4.2 3.4-7.5 7.5-7.5s7.5 3.4 7.5 7.5c0 16.2 13.2 29.4 29.4 29.4s29.4-13.2 29.4-29.4c0-4.2 3.4-7.5 7.5-7.5s7.5 3.4 7.5 7.5c0.2 24.5-19.8 44.5-44.3 44.5z" fill="#FD8469" p-id="1903"></path><path d="M551.7 523.9c0-4.2-3.4-7.5-7.5-7.5-4.2 0-7.5 3.4-7.5 7.5 0 15.3-11.8 27.9-26.7 29.3v15.1c23.2-1.5 41.7-20.8 41.7-44.4z" fill="#FC6F58" p-id="1904"></path><path d="M673.4 262.5L523.1 188c-7.7-3.8-16.7-3.8-24.4 0l-150.3 74.5c-9.4 4.6-15.3 14.2-15.3 24.6v90.8c0 10.6 6.1 20.3 15.7 24.8l22.2 10.6v-48.1c0-7.7 0.7-15.1 1.9-22.4h268.6c1.2 7.3 1.9 14.8 1.9 22.4v52.5l29.4-13.6c9.7-4.5 15.9-14.2 15.9-24.9v-91.9c0-10.6-5.9-20.2-15.3-24.8z" fill="#324A5E" p-id="1905"></path><path d="M673.4 262.5L523.1 188c-4.2-2.1-8.7-3-13.2-2.8v157.5h131.6c1.2 7.3 1.9 14.8 1.9 22.4v52.5l29.4-13.6c9.7-4.5 15.9-14.2 15.9-24.9v-91.9c0-10.5-5.9-20.1-15.3-24.7z" fill="#2B3B4E" p-id="1906"></path><path d="M372.3 383.9c92-13.1 185.3-13.1 277.3 0 2.2-15.2 4.3-30.5 6.5-45.8-96.3-13.7-194-13.7-290.3 0 2.1 15.3 4.3 30.6 6.5 45.8z" fill="#FFD15D" p-id="1907"></path><path d="M509.9 327.9v46.2c46.7 0 93.3 3.2 139.6 9.8 2.2-15.2 4.3-30.5 6.5-45.8-48.4-6.8-97.3-10.2-146.1-10.2z" fill="#F9B54C" p-id="1908"></path><path d="M632.4 730.3l12.2 27.6 30-3.3-17.8 24.4 17.8 24.4-30-3.3-12.2 27.6-12.1-27.6-30 3.3 17.8-24.4-17.8-24.4 30 3.3z" fill="#FFD15D" p-id="1909"></path></svg>