<?xml version="1.0" standalone="no"?><!DOCTYPE svg PUBLIC "-//W3C//DTD SVG 1.1//EN" "http://www.w3.org/Graphics/SVG/1.1/DTD/svg11.dtd"><svg t="1539584883587" class="icon" style="" viewBox="0 0 1024 1024" version="1.1" xmlns="http://www.w3.org/2000/svg" p-id="1295" xmlns:xlink="http://www.w3.org/1999/xlink" width="200" height="200"><defs><style type="text/css"></style></defs><path d="M369.813499 20.181538l336.853193 413.610495 8.810663-391.509171a508.671788 508.671788 0 0 0-203.498582-42.282649c-49.343979 0-97.02396 7.146664-142.165274 20.181325z" fill="#E67258" p-id="1296"></path><path d="M63.72296 264.768103l530.645112 54.250644-270.591887-283.071882a508.330455 508.330455 0 0 0-173.781261 114.005286 510.079787 510.079787 0 0 0-86.271964 114.815952z" fill="#E7AD5A" p-id="1297"></path><path d="M20.181645 654.143941l413.589161-336.89586-391.487837-8.767996A508.053122 508.053122 0 0 0 0.00032 512c0 49.343979 7.12533 96.981293 20.181325 142.143941z" fill="#E7D55C" p-id="1298"></path><path d="M264.746876 960.255813l54.250644-530.666445-283.007882 270.655887a507.391789 507.391789 0 0 0 114.005286 173.781261 509.845121 509.845121 0 0 0 114.751952 86.229297z" fill="#B2D361" p-id="1299"></path><path d="M654.080047 1003.775795l-336.810526-413.610494-8.831996 391.551837a509.013121 509.013121 0 0 0 203.541248 42.282649c49.301313 0 96.981293-7.146664 142.101274-20.223992z" fill="#78BE59" p-id="1300"></path><path d="M960.19192 759.210564l-530.645112-54.229311 270.655887 283.050549a508.629121 508.629121 0 0 0 173.781261-114.005286 507.541122 507.541122 0 0 0 86.207964-114.815952z" fill="#71C6D5" p-id="1301"></path><path d="M1003.754568 369.856059l-413.631827 336.853193 391.551837 8.810663a509.311788 509.311788 0 0 0 42.282649-203.541248c0-49.322646-7.167997-97.002626-20.202659-142.122608z" fill="#5E93CE" p-id="1302"></path><path d="M759.232004 63.744187l-54.271978 530.645112 283.050549-270.613221a510.655787 510.655787 0 0 0-228.778571-260.031891z" fill="#5758A4" p-id="1303"></path></svg>