<?xml version="1.0" standalone="no"?><!DOCTYPE svg PUBLIC "-//W3C//DTD SVG 1.1//EN" "http://www.w3.org/Graphics/SVG/1.1/DTD/svg11.dtd"><svg t="1539072433165" class="icon" style="" viewBox="0 0 1024 1024" version="1.1" xmlns="http://www.w3.org/2000/svg" p-id="1732" xmlns:xlink="http://www.w3.org/1999/xlink" width="200" height="200"><defs><style type="text/css"></style></defs><path d="M511.8 512.3m-447.6 0a447.6 447.6 0 1 0 895.2 0 447.6 447.6 0 1 0-895.2 0Z" fill="#FD8469" p-id="1733"></path><path d="M732.4 901.7c112.1-63.6 193.9-174.2 218.9-305L619.5 264.9l-128.8 99.7-154.3 127 86.7 86.7-8.3 5.8 317.6 317.6z" fill="#FC6F58" p-id="1734"></path><path d="M632.7 630.4h-70c-3.9 0-7-3.1-7-7v-48.6H468v48.6c0 3.9-3.1 7-7 7h-70c-56.2 0-101.8 45.6-101.8 101.8v168.4c65.6 37.7 141.6 59.2 222.7 59.2s157.1-21.6 222.7-59.2V732.2c-0.1-56.3-45.7-101.8-101.9-101.8z" fill="#FED8B2" p-id="1735"></path><path d="M632.7 630.4h-70c-3.9 0-7-3.1-7-7v-48.6h-44.9v385.1h1c81.1 0 157.1-21.6 222.7-59.2V732.2c0-56.3-45.6-101.8-101.8-101.8z" fill="#EABE96" p-id="1736"></path><path d="M661 634.4c-9-2.6-18.5-4-28.3-4h-23.2c-8.7 46-49.1 80.8-97.7 80.8s-89-34.8-97.7-80.8h-23.2c-9.8 0-19.3 1.4-28.3 4v299.9c46.7 16.5 96.9 25.5 149.2 25.5 52.3 0 102.5-9 149.2-25.5V634.4z" fill="#90DFAA" p-id="1737"></path><path d="M632.7 630.4h-23.2c-8.7 46-49.1 80.8-97.7 80.8h-1v248.7h1c52.3 0 102.5-9 149.2-25.5v-300c-9-2.6-18.5-4-28.3-4z" fill="#6CBC82" p-id="1738"></path><path d="M366 472.8m-35.1 0a35.1 35.1 0 1 0 70.2 0 35.1 35.1 0 1 0-70.2 0Z" fill="#FED8B2" p-id="1739"></path><path d="M650.1 472.8m-35.1 0a35.1 35.1 0 1 0 70.2 0 35.1 35.1 0 1 0-70.2 0Z" fill="#EABE96" p-id="1740"></path><path d="M512 618.8h-7.9c-73.1 0-132.3-59.2-132.3-132.3V365.7c0-73.1 59.2-132.3 132.3-132.3h7.9c73.1 0 132.3 59.2 132.3 132.3v120.8c0 73-59.2 132.3-132.3 132.3z" fill="#F4E3C3" p-id="1741"></path><path d="M512 233.4h-1.2v385.4h1.2c73.1 0 132.3-59.2 132.3-132.3V365.7c0-73.1-59.2-132.3-132.3-132.3z" fill="#FED8B2" p-id="1742"></path><path d="M629.9 278.1c-26-37-69-61.2-117.6-61.2h-8.6c-79.3 0-143.6 64.3-143.6 143.6v112.3h21.1v-59.3c64-6.5 126.9-19.1 182.1-46.6 19.8 22.8 42.8 43.1 68.1 59.7v46.3H656V360.7c0-30.9-9.7-59.3-26.1-82.6z" fill="#935635" p-id="1743"></path><path d="M629.9 278.1c-26-37-69-61.2-117.6-61.2h-1.6v171.3c18.1-5.9 35.6-12.9 52.5-21.3 19.8 22.8 42.8 43.1 68.1 59.7v46.3H656V360.7c0-30.9-9.7-59.3-26.1-82.6z" fill="#804000" p-id="1744"></path><path d="M443.8 457.2m-13.6 0a13.6 13.6 0 1 0 27.2 0 13.6 13.6 0 1 0-27.2 0Z" fill="#59595B" p-id="1745"></path><path d="M572.3 457.2m-13.6 0a13.6 13.6 0 1 0 27.2 0 13.6 13.6 0 1 0-27.2 0Z" fill="#272525" p-id="1746"></path><path d="M508 568.9c-24.6 0-44.5-20-44.5-44.5 0-4.2 3.4-7.5 7.5-7.5 4.2 0 7.5 3.4 7.5 7.5 0 16.2 13.2 29.4 29.4 29.4s29.4-13.2 29.4-29.4c0-4.2 3.4-7.5 7.5-7.5 4.2 0 7.5 3.4 7.5 7.5 0.3 24.5-19.7 44.5-44.3 44.5z" fill="#FD8469" p-id="1747"></path><path d="M552.6 524.4c0-4.2-3.4-7.5-7.5-7.5s-7.5 3.4-7.5 7.5c0 15.3-11.8 27.9-26.7 29.3v15.1c23.1-1.5 41.7-20.8 41.7-44.4z" fill="#FC6F58" p-id="1748"></path><path d="M355.1 356.3h307.4v63.3H355.1z" fill="#FFD15D" p-id="1749"></path><path d="M510.8 356.3h151.7v63.3H510.8z" fill="#F9B54C" p-id="1750"></path></svg>